#Comment line ignore any data following # character 
#Hierarchical Translation and Rotation (.htr) file 
[Header]	
#Header keywords are followed by a single value 
FileType HTR		#Single word string
DataType HTRS		#Translation followed by rotation and scale data
FileVersion 1		#integer
NumSegments 84		#integer
NumFrames 2		#integer
DataFrameRate 30		#integer, data frame rate in this file
EulerRotationOrder ZYX
CalibrationUnits mm
RotationUnits Degrees
GlobalAxisofGravity Y
BoneLengthAxis Y
ScaleFactor 1.00
[SegmentNames&Hierarchy]
#CHILD	PARENT
MASTER GLOBAL
root MASTER
chest root
L_mid_tent01 root
R_mid_tent01 root
spine01 root
Bip01_Neck chest
L_humerus chest
R_humerus chest
weapon_bone chest
Bip01_Head Bip01_Neck
eye_left_bone Bip01_Head
eye_right_bone Bip01_Head
L_forearm L_humerus
L_front_hand L_forearm
L_weapon_bone L_forearm
L_front_hand01_01 L_front_hand
L_front_hand02_01 L_front_hand
L_front_hand03_01 L_front_hand
L_front_hand01_02 L_front_hand01_01
L_front_hand02_02 L_front_hand02_01
L_front_hand03_02 L_front_hand03_01
R_forearm R_humerus
R_front_hand R_forearm
R_weapon_bone R_forearm
R_front_hand01_01 R_front_hand
R_front_hand02_01 R_front_hand
R_front_hand03_01 R_front_hand
R_front_hand01_02 R_front_hand01_01
R_front_hand02_02 R_front_hand02_01
R_front_hand03_02 R_front_hand03_01
null_rope01_connect L_mid_tent01
Rope1_Seg01 null_rope01_connect
Rope1_Seg02 Rope1_Seg01
Rope1_Seg03 Rope1_Seg02
Rope1_Seg04 Rope1_Seg03
Rope1_Seg05 Rope1_Seg04
Rope1_Seg06 Rope1_Seg05
Rope1_Seg07 Rope1_Seg06
Rope1_Seg09 Rope1_Seg07
L_mid_hand01 Rope1_Seg09
L_mid_hand02 Rope1_Seg09
L_mid_hand03 Rope1_Seg09
null_rope02_connect R_mid_tent01
Rope2_Seg01 null_rope02_connect
Rope2_Seg02 Rope2_Seg01
Rope2_Seg03 Rope2_Seg02
Rope2_Seg04 Rope2_Seg03
Rope2_Seg05 Rope2_Seg04
Rope2_Seg06 Rope2_Seg05
Rope2_Seg07 Rope2_Seg06
Rope2_Seg09 Rope2_Seg07
R_mid_hand01 Rope2_Seg09
R_mid_hand02 Rope2_Seg09
R_mid_hand03 Rope2_Seg09
spine02 spine01
spine03 spine02
pelvis spine03
null_rope03_connect pelvis
null_rope04_connect pelvis
Rope3_Seg01 null_rope03_connect
Rope3_Seg02 Rope3_Seg01
Rope3_Seg03 Rope3_Seg02
Rope3_Seg04 Rope3_Seg03
Rope3_Seg05 Rope3_Seg04
Rope3_Seg06 Rope3_Seg05
Rope3_Seg07 Rope3_Seg06
Rope3_Seg08 Rope3_Seg07
Rope3_Seg09 Rope3_Seg08
R_rear_hand01 Rope3_Seg09
R_rear_hand02 Rope3_Seg09
R_rear_hand03 Rope3_Seg09
Rope4_Seg01 null_rope04_connect
Rope4_Seg02 Rope4_Seg01
Rope4_Seg03 Rope4_Seg02
Rope4_Seg04 Rope4_Seg03
Rope4_Seg05 Rope4_Seg04
Rope4_Seg06 Rope4_Seg05
Rope4_Seg07 Rope4_Seg06
Rope4_Seg08 Rope4_Seg07
Rope4_Seg09 Rope4_Seg08
L_rear_hand01 Rope4_Seg09
L_rear_hand02 Rope4_Seg09
L_rear_hand03 Rope4_Seg09
[BasePosition]
#SegmentName Tx, Ty, Tz, Rx, Ry, Rz, BoneLength
MASTER 0.000000 0.000000 0.000000 -90.000000 0.000000 0.000000 10.000000 
root 0.000000 0.000000 0.000000 0.000000 0.000000 0.000000 10.000000 
chest 0.000000 0.000000 0.000000 0.000000 0.000000 0.000000 10.000000 
L_mid_tent01 0.000000 0.000000 0.000000 0.000000 0.000000 0.000000 10.000000 
R_mid_tent01 0.000000 0.000000 0.000000 0.000000 0.000000 0.000000 10.000000 
spine01 0.000000 0.000000 0.000000 0.000000 0.000000 0.000000 10.000000 
Bip01_Neck 0.000000 0.000000 0.000000 0.000000 0.000000 0.000000 10.000000 
L_humerus 0.000000 0.000000 0.000000 0.000000 0.000000 0.000000 10.000000 
R_humerus 0.000000 0.000000 0.000000 0.000000 0.000000 0.000000 10.000000 
weapon_bone 0.000000 0.000000 0.000000 0.000000 0.000000 0.000000 10.000000 
Bip01_Head 0.000000 0.000000 0.000000 0.000000 0.000000 0.000000 10.000000 
eye_left_bone 0.000000 0.000000 0.000000 0.000000 0.000000 0.000000 10.000000 
eye_right_bone 0.000000 0.000000 0.000000 0.000000 0.000000 0.000000 10.000000 
L_forearm 0.000000 0.000000 0.000000 0.000000 0.000000 0.000000 10.000000 
L_front_hand 0.000000 0.000000 0.000000 0.000000 0.000000 0.000000 10.000000 
L_weapon_bone 0.000000 0.000000 0.000000 0.000000 0.000000 0.000000 10.000000 
L_front_hand01_01 0.000000 0.000000 0.000000 0.000000 0.000000 0.000000 10.000000 
L_front_hand02_01 0.000000 0.000000 0.000000 0.000000 0.000000 0.000000 10.000000 
L_front_hand03_01 0.000000 0.000000 0.000000 0.000000 0.000000 0.000000 10.000000 
L_front_hand01_02 0.000000 0.000000 0.000000 0.000000 0.000000 0.000000 10.000000 
L_front_hand02_02 0.000000 0.000000 0.000000 0.000000 0.000000 0.000000 10.000000 
L_front_hand03_02 0.000000 0.000000 0.000000 0.000000 0.000000 0.000000 10.000000 
R_forearm 0.000000 0.000000 0.000000 0.000000 0.000000 0.000000 10.000000 
R_front_hand 0.000000 0.000000 0.000000 0.000000 0.000000 0.000000 10.000000 
R_weapon_bone 0.000000 0.000000 0.000000 0.000000 0.000000 0.000000 10.000000 
R_front_hand01_01 0.000000 0.000000 0.000000 0.000000 0.000000 0.000000 10.000000 
R_front_hand02_01 0.000000 0.000000 0.000000 0.000000 0.000000 0.000000 10.000000 
R_front_hand03_01 0.000000 0.000000 0.000000 0.000000 0.000000 0.000000 10.000000 
R_front_hand01_02 0.000000 0.000000 0.000000 0.000000 0.000000 0.000000 10.000000 
R_front_hand02_02 0.000000 0.000000 0.000000 0.000000 0.000000 0.000000 10.000000 
R_front_hand03_02 0.000000 0.000000 0.000000 0.000000 0.000000 0.000000 10.000000 
null_rope01_connect 0.000000 0.000000 0.000000 0.000000 0.000000 0.000000 10.000000 
Rope1_Seg01 0.000000 0.000000 0.000000 0.000000 0.000000 0.000000 10.000000 
Rope1_Seg02 0.000000 0.000000 0.000000 0.000000 0.000000 0.000000 10.000000 
Rope1_Seg03 0.000000 0.000000 0.000000 0.000000 0.000000 0.000000 10.000000 
Rope1_Seg04 0.000000 0.000000 0.000000 0.000000 0.000000 0.000000 10.000000 
Rope1_Seg05 0.000000 0.000000 0.000000 0.000000 0.000000 0.000000 10.000000 
Rope1_Seg06 0.000000 0.000000 0.000000 0.000000 0.000000 0.000000 10.000000 
Rope1_Seg07 0.000000 0.000000 0.000000 0.000000 0.000000 0.000000 10.000000 
Rope1_Seg09 0.000000 0.000000 0.000000 0.000000 0.000000 0.000000 10.000000 
L_mid_hand01 0.000000 0.000000 0.000000 0.000000 0.000000 0.000000 10.000000 
L_mid_hand02 0.000000 0.000000 0.000000 0.000000 0.000000 0.000000 10.000000 
L_mid_hand03 0.000000 0.000000 0.000000 0.000000 0.000000 0.000000 10.000000 
null_rope02_connect 0.000000 0.000000 0.000000 0.000000 0.000000 0.000000 10.000000 
Rope2_Seg01 0.000000 0.000000 0.000000 0.000000 0.000000 0.000000 10.000000 
Rope2_Seg02 0.000000 0.000000 0.000000 0.000000 0.000000 0.000000 10.000000 
Rope2_Seg03 0.000000 0.000000 0.000000 0.000000 0.000000 0.000000 10.000000 
Rope2_Seg04 0.000000 0.000000 0.000000 0.000000 0.000000 0.000000 10.000000 
Rope2_Seg05 0.000000 0.000000 0.000000 0.000000 0.000000 0.000000 10.000000 
Rope2_Seg06 0.000000 0.000000 0.000000 0.000000 0.000000 0.000000 10.000000 
Rope2_Seg07 0.000000 0.000000 0.000000 0.000000 0.000000 0.000000 10.000000 
Rope2_Seg09 0.000000 0.000000 0.000000 0.000000 0.000000 0.000000 10.000000 
R_mid_hand01 0.000000 0.000000 0.000000 0.000000 0.000000 0.000000 10.000000 
R_mid_hand02 0.000000 0.000000 0.000000 0.000000 0.000000 0.000000 10.000000 
R_mid_hand03 0.000000 0.000000 0.000000 0.000000 0.000000 0.000000 10.000000 
spine02 0.000000 0.000000 0.000000 0.000000 0.000000 0.000000 10.000000 
spine03 0.000000 0.000000 0.000000 0.000000 0.000000 0.000000 10.000000 
pelvis 0.000000 0.000000 0.000000 0.000000 0.000000 0.000000 10.000000 
null_rope03_connect 0.000000 0.000000 0.000000 0.000000 0.000000 0.000000 10.000000 
null_rope04_connect 0.000000 0.000000 0.000000 0.000000 0.000000 0.000000 10.000000 
Rope3_Seg01 0.000000 0.000000 0.000000 0.000000 0.000000 0.000000 10.000000 
Rope3_Seg02 0.000000 0.000000 0.000000 0.000000 0.000000 0.000000 10.000000 
Rope3_Seg03 0.000000 0.000000 0.000000 0.000000 0.000000 0.000000 10.000000 
Rope3_Seg04 0.000000 0.000000 0.000000 0.000000 0.000000 0.000000 10.000000 
Rope3_Seg05 0.000000 0.000000 0.000000 0.000000 0.000000 0.000000 10.000000 
Rope3_Seg06 0.000000 0.000000 0.000000 0.000000 0.000000 0.000000 10.000000 
Rope3_Seg07 0.000000 0.000000 0.000000 0.000000 0.000000 0.000000 10.000000 
Rope3_Seg08 0.000000 0.000000 0.000000 0.000000 0.000000 0.000000 10.000000 
Rope3_Seg09 0.000000 0.000000 0.000000 0.000000 0.000000 0.000000 10.000000 
R_rear_hand01 0.000000 0.000000 0.000000 0.000000 0.000000 0.000000 10.000000 
R_rear_hand02 0.000000 0.000000 0.000000 0.000000 0.000000 0.000000 10.000000 
R_rear_hand03 0.000000 0.000000 0.000000 0.000000 0.000000 0.000000 10.000000 
Rope4_Seg01 0.000000 0.000000 0.000000 0.000000 0.000000 0.000000 10.000000 
Rope4_Seg02 0.000000 0.000000 0.000000 0.000000 0.000000 0.000000 10.000000 
Rope4_Seg03 0.000000 0.000000 0.000000 0.000000 0.000000 0.000000 10.000000 
Rope4_Seg04 0.000000 0.000000 0.000000 0.000000 0.000000 0.000000 10.000000 
Rope4_Seg05 0.000000 0.000000 0.000000 0.000000 0.000000 0.000000 10.000000 
Rope4_Seg06 0.000000 0.000000 0.000000 0.000000 0.000000 0.000000 10.000000 
Rope4_Seg07 0.000000 0.000000 0.000000 0.000000 0.000000 0.000000 10.000000 
Rope4_Seg08 0.000000 0.000000 0.000000 0.000000 0.000000 0.000000 10.000000 
Rope4_Seg09 0.000000 0.000000 0.000000 0.000000 0.000000 0.000000 10.000000 
L_rear_hand01 0.000000 0.000000 0.000000 0.000000 0.000000 0.000000 10.000000 
L_rear_hand02 0.000000 0.000000 0.000000 0.000000 0.000000 0.000000 10.000000 
L_rear_hand03 0.000000 0.000000 0.000000 0.000000 0.000000 0.000000 10.000000 
#Beginning of Data. Separated by tabs
#Fr	Tx	Ty	Tz	Rx	Ry	Rz	SF
[MASTER]
6 -97.016792 526.564087 257.169464 0.001660 0.001660 0.001660 593.984924
7 -115.836937 619.570435 338.964172 0.001660 0.001660 0.001660 715.669189
[root]
6 65.424522 -25.758509 1361.943359 -78.494095 2.371444 -98.742577 1363.757202
7 89.959846 -3.347855 1292.302490 -79.363533 4.808197 -98.517845 1295.434204
[chest]
6 -84.512650 -34.090519 0.000000 2.365136 4.238368 160.753128 91.129311
7 -84.512650 -34.090519 0.000000 3.373016 5.348766 159.165863 91.129311
[L_mid_tent01]
6 27.299126 22.179087 -249.918701 -0.478570 12.791245 69.451340 252.381683
7 27.299128 22.179085 -249.918701 -1.189963 17.078775 68.416061 252.381683
[R_mid_tent01]
6 23.228794 24.509907 226.238495 169.680267 -23.333866 66.515968 228.744751
7 23.228794 24.509907 226.238495 171.441574 -25.223787 62.099098 228.744751
[spine01]
6 -0.361383 -0.195265 0.000000 -0.000001 -0.000007 22.052340 0.410763
7 -0.361383 -0.195265 0.000000 -0.000001 -0.000007 22.052340 0.410763
[Bip01_Neck]
6 165.484543 71.581718 0.000119 176.643677 -1.657967 43.431911 180.302734
7 165.484543 71.581718 0.000119 176.643677 -1.657966 43.431908 180.302734
[L_humerus]
6 -13.983130 -135.272980 -120.471481 2.684185 72.615036 92.680115 181.680161
7 -13.983130 -135.272980 -120.471481 6.721958 74.621857 96.751923 181.680161
[R_humerus]
6 -13.983309 -135.273102 125.287651 52.459343 -85.268982 42.831852 184.909012
7 -13.983309 -135.273102 125.287651 139.121536 -86.931015 -43.925472 184.909012
[weapon_bone]
6 235.964890 -300.705902 0.000000 0.000000 -89.951546 -128.212341 382.234833
7 235.964890 -300.705902 0.000000 0.000000 -89.951546 -128.212341 382.234833
[Bip01_Head]
6 213.553314 185.411682 15.697118 4.962490 2.797846 -43.898743 283.247070
7 213.636154 185.181107 18.674191 4.962490 2.797845 -43.898739 283.339325
[eye_left_bone]
6 -24.626970 125.451866 -64.772606 0.000000 -90.000000 -99.840431 143.318359
7 -24.626970 125.451866 -64.772606 0.000000 -90.000000 -99.840431 143.318359
[eye_right_bone]
6 -24.626970 125.451866 64.327362 0.000000 -89.980217 80.156380 143.117676
7 -24.626970 125.451866 64.327362 0.000000 -89.965736 80.156380 143.117676
[L_forearm]
6 322.776093 0.000000 -0.000119 0.000400 -0.002313 -109.631813 322.776093
7 322.776093 0.000000 -0.000119 0.000401 -0.002313 -109.688293 322.776093
[L_front_hand]
6 241.149185 -0.042021 -3.300071 -171.165970 -1.835099 -27.424942 241.171753
7 241.149185 -0.042021 -3.300071 -170.027237 -1.834594 -27.425117 241.171753
[L_weapon_bone]
6 156.183838 0.000000 0.000000 0.000014 0.000007 0.000001 156.183838
7 156.183838 0.000000 0.000000 0.000014 0.000007 0.000001 156.183838
[L_front_hand01_01]
6 86.095154 20.947098 -0.655860 -0.340755 -0.496208 72.096481 88.609184
7 86.095154 20.947098 -0.655860 -0.322964 -0.505554 70.186295 88.609184
[L_front_hand02_01]
6 86.935165 -11.437475 24.513514 149.544266 -58.335350 -55.710854 91.046425
7 86.935165 -11.437475 24.513514 146.960190 -57.330456 -52.657890 91.046425
[L_front_hand03_01]
6 86.637497 -14.123976 -20.424902 -149.397461 56.551064 -57.336918 90.126129
7 86.637497 -14.123976 -20.424902 -146.989075 55.546074 -54.434807 90.126129
[L_front_hand01_02]
6 71.020905 -0.000179 0.000030 0.000322 -0.002325 -105.791725 71.020905
7 71.020905 -0.000179 0.000030 0.000321 -0.002325 -105.728416 71.020905
[L_front_hand02_02]
6 71.020927 -0.000119 0.000060 0.000322 -0.002325 -105.791725 71.020927
7 71.020927 -0.000119 0.000060 0.000321 -0.002325 -105.728416 71.020927
[L_front_hand03_02]
6 71.020905 -0.000060 0.000060 0.000322 -0.002325 -105.791725 71.020905
7 71.020905 -0.000060 0.000060 0.000321 -0.002325 -105.728416 71.020905
[R_forearm]
6 322.776428 -0.000060 0.000030 0.201945 0.065646 -108.339867 322.776428
7 322.776428 -0.000060 0.000030 0.201899 0.065788 -108.420387 322.776428
[R_front_hand]
6 238.847015 -0.006795 2.210259 -10.135550 -10.644238 -26.314564 238.857239
7 238.847015 -0.006795 2.210259 -11.275249 -10.644036 -26.315348 238.857239
[R_weapon_bone]
6 155.664093 0.002503 -0.000030 0.003487 0.001180 -90.988930 155.664078
7 155.664093 0.002503 -0.000030 0.003487 0.001180 -90.988930 155.664078
[R_front_hand01_01]
6 87.624611 14.231146 22.918642 -149.707169 -58.394505 56.007458 91.683487
7 87.624611 14.231146 22.918642 -146.976166 -57.336147 52.779388 91.683487
[R_front_hand02_01]
6 89.356956 14.367283 -19.491137 149.983444 56.758789 58.275921 92.579636
7 89.356956 14.367283 -19.491137 147.400665 55.711205 55.166904 92.579636
[R_front_hand03_01]
6 87.286232 -22.307278 -0.143439 0.134949 -0.432464 -72.452232 90.091743
7 87.286232 -22.307278 -0.143439 0.123256 -0.437630 -70.429710 90.091743
[R_front_hand01_02]
6 71.020905 0.000060 0.000119 0.002328 -0.000298 104.598190 71.020905
7 71.020905 0.000060 0.000119 0.002328 -0.000296 104.485847 71.020905
[R_front_hand02_02]
6 71.020844 -0.000030 -0.000119 0.002328 -0.000298 104.598190 71.020836
7 71.020844 -0.000030 -0.000119 0.002328 -0.000296 104.485847 71.020836
[R_front_hand03_02]
6 71.020905 0.000000 0.000030 0.002328 -0.000298 104.598190 71.020905
7 71.020905 0.000000 0.000030 0.002328 -0.000296 104.485847 71.020905
[null_rope01_connect]
6 328.732483 0.000000 -0.000238 -93.745949 -77.253876 111.400696 328.732483
7 328.732483 0.000000 -0.000238 -115.210197 -75.539940 130.869446 328.732483
[Rope1_Seg01]
6 0.000000 0.000000 0.000000 -10.496822 -5.563576 -158.479050 0.000000
7 0.000000 0.000000 0.000000 -12.537680 1.858169 -177.702652 0.000000
[Rope1_Seg02]
6 139.999863 -0.000179 0.000000 3.924066 12.637430 -5.934818 139.999863
7 139.999863 -0.000179 0.000000 -0.521245 16.628050 -12.680532 139.999863
[Rope1_Seg03]
6 139.999924 0.000060 -0.000060 -2.295048 21.790648 -19.575485 139.999924
7 139.999924 0.000060 -0.000060 -2.201554 14.796060 -16.696249 139.999924
[Rope1_Seg04]
6 139.999924 -0.000060 -0.000119 -3.978655 34.283253 -4.623409 139.999924
7 139.999924 -0.000060 -0.000119 -12.865203 30.208527 -11.312105 139.999924
[Rope1_Seg05]
6 139.999832 0.000119 -0.000060 -3.459570 55.939713 44.839828 139.999832
7 139.999832 0.000119 -0.000060 -66.740074 53.562233 -2.473172 139.999832
[Rope1_Seg06]
6 139.999954 0.000119 -0.000060 -5.187449 11.873885 13.378022 139.999954
7 139.999954 0.000119 -0.000060 -17.207687 8.356141 15.510026 139.999954
[Rope1_Seg07]
6 139.999985 0.000060 0.000000 -1.250970 2.378400 3.310474 139.999985
7 139.999985 0.000060 0.000000 -3.778848 0.943521 5.123708 139.999985
[Rope1_Seg09]
6 121.602913 0.000119 -0.000089 -89.793175 -1.359789 0.847147 121.602913
7 121.602913 0.000119 -0.000089 -89.793175 -1.359789 0.847147 121.602913
[L_mid_hand01]
6 103.859421 1.038730 8.195221 115.405022 -54.702576 -21.718946 104.187431
7 103.859421 1.038730 8.195221 112.987701 -50.601227 -18.681456 104.187431
[L_mid_hand02]
6 105.572853 -4.139662 -10.864139 -156.173538 38.796768 -54.226353 106.211075
7 105.572853 -4.139662 -10.864139 -153.018723 36.866009 -49.082401 106.211075
[L_mid_hand03]
6 104.641464 17.579376 -3.913581 -10.557028 15.605442 59.191399 106.179977
7 104.641464 17.579376 -3.913581 -11.755013 14.733717 54.618225 106.179977
[null_rope02_connect]
6 328.732849 0.000179 -0.000119 -160.154449 59.789890 -7.610038 328.732849
7 328.732849 0.000179 -0.000119 -161.490692 58.977509 -10.643903 328.732849
[Rope2_Seg01]
6 0.000043 0.000134 0.000000 65.700928 31.587536 -4.254085 0.000140
7 0.000044 0.000130 0.000000 71.728470 30.416492 2.658671 0.000137
[Rope2_Seg02]
6 139.999741 -0.000060 -0.000119 -0.727075 13.879853 -6.267860 139.999756
7 139.999741 -0.000060 -0.000119 -1.439694 11.539651 -7.695642 139.999756
[Rope2_Seg03]
6 140.000107 0.000030 0.000000 -3.100122 17.992767 -19.190859 140.000107
7 140.000107 0.000030 0.000000 -2.466689 12.618016 -21.302114 140.000107
[Rope2_Seg04]
6 139.999802 0.000000 -0.000060 -10.550661 38.492603 -5.952193 139.999802
7 139.999802 0.000000 -0.000060 -8.355551 36.315689 -7.544220 139.999802
[Rope2_Seg05]
6 139.999985 -0.000060 0.000119 -36.342350 25.243382 18.531744 139.999985
7 139.999985 -0.000060 0.000119 -35.686863 28.016727 19.541767 139.999985
[Rope2_Seg06]
6 139.999893 -0.000030 -0.000119 -9.567783 2.715710 6.231436 139.999893
7 139.999893 -0.000030 -0.000119 -9.447382 3.083224 6.308299 139.999893
[Rope2_Seg07]
6 139.999893 0.000060 -0.000060 -4.600870 0.884046 3.228523 139.999893
7 139.999893 0.000060 -0.000060 -4.610831 1.036246 3.311496 139.999893
[Rope2_Seg09]
6 121.338966 0.000089 -0.000060 33.793236 -1.359788 -0.847141 121.338966
7 121.338966 0.000089 -0.000060 33.793236 -1.359788 -0.847141 121.338966
[R_mid_hand01]
6 104.680779 11.144459 -10.335981 -22.984863 42.734234 60.718655 105.778534
7 104.680779 11.144459 -10.335981 -25.192726 41.648338 57.439434 105.778534
[R_mid_hand02]
6 104.070427 2.443552 8.231699 58.419525 -61.729706 28.969120 104.424065
7 104.070427 2.443552 8.231699 60.800945 -59.436069 26.232430 104.424065
[R_mid_hand03]
6 106.028137 -11.221827 -5.996406 -175.069138 15.041784 -68.893349 106.788818
7 106.028137 -11.221827 -5.996406 -174.361145 14.799507 -66.152634 106.788818
[spine02]
6 129.756927 0.001550 0.000119 0.478034 -4.031582 -14.589011 129.756927
7 129.756927 0.001550 0.000119 0.490683 -4.030020 -14.808994 129.756927
[spine03]
6 78.614044 0.081501 -4.899006 1.963992 3.798851 17.515518 78.766579
7 78.614044 0.081505 -4.899006 1.972745 3.793459 17.643412 78.766579
[pelvis]
6 169.435242 0.051022 0.000000 -0.068670 -0.178384 16.198400 169.435257
7 169.435242 0.051022 0.000000 -0.069105 -0.178216 16.478197 169.435257
[null_rope03_connect]
6 -1.257226 -2.466202 137.391083 -35.973160 -74.199059 83.392136 137.418976
7 -1.257226 -2.466202 137.391083 -38.766911 -74.745644 83.461922 137.418976
[null_rope04_connect]
6 -1.259640 -2.480268 -137.844437 -35.973160 -74.199059 83.392136 137.872513
7 -1.259640 -2.480268 -137.844437 -38.766911 -74.745644 83.461922 137.872513
[Rope3_Seg01]
6 -0.000021 -0.000072 0.000000 18.583105 -7.359163 -96.330772 0.000075
7 -0.000022 -0.000078 0.000000 21.189770 -15.370383 -94.446922 0.000081
[Rope3_Seg02]
6 139.999924 -0.000119 0.000060 0.478728 29.925476 10.834333 139.999924
7 139.999924 -0.000119 0.000060 3.441577 38.068584 14.650328 139.999924
[Rope3_Seg03]
6 139.999924 -0.000119 0.000119 14.806260 33.679127 19.119020 139.999924
7 139.999924 -0.000119 0.000119 30.685978 42.931652 24.266796 139.999924
[Rope3_Seg04]
6 139.999924 0.000119 0.000000 7.058980 8.808614 -3.604568 139.999924
7 139.999924 0.000119 0.000000 9.452740 7.116278 -5.014986 139.999924
[Rope3_Seg05]
6 139.999924 -0.000238 0.000060 1.801123 -4.281298 -10.355158 139.999924
7 139.999924 -0.000238 0.000060 0.150676 -6.668096 -9.107400 139.999924
[Rope3_Seg06]
6 139.999893 -0.000119 -0.000060 1.627408 -0.160703 -4.948349 139.999893
7 139.999893 -0.000119 -0.000060 1.720193 -1.492521 -5.701843 139.999893
[Rope3_Seg07]
6 139.999771 0.000060 -0.000119 1.259205 -0.024619 -3.461331 139.999771
7 139.999771 0.000060 -0.000119 1.401145 -0.912042 -4.204815 139.999771
[Rope3_Seg08]
6 139.999985 -0.000060 0.000000 0.922798 -0.061081 -2.036629 139.999985
7 139.999985 -0.000060 0.000000 0.952968 -0.562754 -2.322812 139.999985
[Rope3_Seg09]
6 90.185997 -0.000179 -0.000060 89.793228 -1.359877 -0.847183 90.185997
7 90.185997 -0.000179 -0.000060 89.793228 -1.359877 -0.847183 90.185997
[R_rear_hand01]
6 103.366196 -6.073594 -10.757982 -173.599045 23.870514 -63.902164 104.101845
7 103.366196 -6.073594 -10.757982 -172.199188 23.472191 -60.427750 104.101845
[R_rear_hand02]
6 100.509819 12.039542 -7.992327 -19.192892 34.332623 61.336498 101.543350
7 100.509819 12.039542 -7.992327 -21.205954 33.223911 57.720810 101.543350
[R_rear_hand03]
6 101.539970 5.215704 5.435467 77.403587 -62.983585 15.125125 101.819031
7 101.539970 5.215704 5.435467 78.624985 -59.850563 13.735100 101.819031
[Rope4_Seg01]
6 0.000010 0.000038 -0.000114 -102.697792 11.053887 -134.773514 0.000121
7 0.000010 0.000038 -0.000114 -97.673203 3.508145 -136.559021 0.000121
[Rope4_Seg02]
6 139.999985 0.000060 0.000119 -4.085233 -0.176067 6.266381 139.999985
7 139.999985 0.000060 0.000119 -3.626077 2.685247 6.780791 139.999985
[Rope4_Seg03]
6 139.999924 0.000000 -0.000238 -6.199675 -1.690516 8.074763 139.999924
7 139.999924 0.000000 -0.000238 -7.143916 2.591394 9.830118 139.999924
[Rope4_Seg04]
6 139.999985 0.000000 0.000119 -8.750649 -7.989892 9.193999 139.999985
7 139.999985 0.000000 0.000119 -14.296695 -2.468535 13.462184 139.999985
[Rope4_Seg05]
6 139.999802 -0.000060 -0.000119 -13.895932 9.870494 21.675079 139.999802
7 139.999802 -0.000060 -0.000119 -29.056271 10.705643 24.153049 139.999802
[Rope4_Seg06]
6 139.999924 0.000000 0.000060 -15.520888 5.112364 13.752044 139.999924
7 139.999924 0.000000 0.000060 -31.188501 1.150250 15.495102 139.999924
[Rope4_Seg07]
6 139.999802 0.000000 0.000000 -9.842124 -0.381613 6.108355 139.999802
7 139.999802 0.000000 0.000000 -13.522733 -3.734305 5.458995 139.999802
[Rope4_Seg08]
6 139.999924 0.000000 0.000119 -7.308293 -0.772503 3.247947 139.999924
7 139.999924 0.000000 0.000119 -7.722895 -2.619710 2.375149 139.999924
[Rope4_Seg09]
6 90.185791 0.000060 0.000060 -135.617828 2.228885 0.850567 90.185791
7 90.185791 0.000060 0.000060 -135.617828 2.228885 0.850567 90.185791
[L_rear_hand01]
6 101.696655 -8.392275 -7.654577 -28.953402 -26.963970 137.645660 102.329041
7 101.696655 -8.392275 -7.654577 -30.967802 -24.555588 142.276382 102.329041
[L_rear_hand02]
6 102.726799 -1.568258 5.773216 81.888351 45.378387 170.342453 102.900848
7 102.726799 -1.568258 5.773216 82.497200 40.606583 171.238342 102.900848
[L_rear_hand03]
6 104.552910 9.721220 -10.420293 -166.314163 -20.719036 -135.138702 105.519653
7 104.552910 9.721220 -10.420293 -164.603775 -19.511108 -140.104065 105.519653
